<svg width="164" height="211" viewBox="0 0 164 211" fill="none" xmlns="http://www.w3.org/2000/svg">
<g filter="url(#filter0_d_1_125)">
<rect x="15" y="15" width="124" height="171" rx="10" fill="#DDF8FA"/>
<mask id="mask0_1_125" style="mask-type:alpha" maskUnits="userSpaceOnUse" x="15" y="15" width="124" height="171">
<rect x="15" y="15" width="124" height="171" rx="10" fill="white"/>
</mask>
<g mask="url(#mask0_1_125)">
<path opacity="0.2" d="M32.5547 74.1174C31.2561 92.855 18.7018 94.1397 11.6834 94.4105L-2.76021 8.381L81.3696 11.9922C82.0374 22.4889 70.6029 33.9808 61.3105 36.7566C41.115 42.7894 34.2054 50.2992 32.5547 74.1174Z" fill="#1AEBC5"/>
<path opacity="0.1" d="M23.9568 57.0231C23.9392 74.532 12.2915 76.5387 5.75124 77.2446L-13.2339 -1.82332L65.6014 -3.90714C66.8952 5.81097 56.9449 17.2374 48.44 20.4198C29.9558 27.3363 23.9791 34.7669 23.9568 57.0231Z" fill="#8F5CFB"/>
</g>
<path d="M35.1406 150.156C37.7812 150.156 39.6641 148.758 39.6562 146.797C39.6641 145.391 38.75 144.398 37.0156 144.188V144.109C38.3203 143.914 39.2422 143.031 39.2344 141.766C39.2422 139.922 37.5859 138.531 35.1719 138.531C32.7344 138.531 30.9531 139.93 30.9219 141.938H33.4844C33.5 141.148 34.2266 140.617 35.1562 140.609C36.0625 140.617 36.6719 141.156 36.6719 141.922C36.6719 142.734 35.9531 143.289 34.9219 143.281H33.8281V145.188H34.9219C36.1094 145.195 36.875 145.773 36.8594 146.594C36.875 147.414 36.1562 147.977 35.1562 147.984C34.1484 147.977 33.4141 147.461 33.3906 146.703H30.7031C30.7266 148.734 32.5625 150.156 35.1406 150.156ZM45.8125 150.156C48.75 150.156 50.5547 148.062 50.5469 144.344C50.5547 140.648 48.75 138.531 45.8125 138.531C42.875 138.531 41.0781 140.633 41.0781 144.344C41.0781 148.055 42.875 150.156 45.8125 150.156ZM43.8125 144.344C43.8203 141.875 44.6172 140.695 45.8125 140.688C47.0156 140.695 47.8125 141.875 47.8125 144.344C47.8203 146.852 47.0156 147.984 45.8125 147.984C44.6094 147.984 43.8047 146.852 43.8125 144.344ZM64.7344 144.438H51.625V146.188H57.2656V148.344H59.4844V146.188H64.7344V144.438ZM53.1094 151.266H63.2969V149.469H55.3438V147.281H53.1094V151.266ZM53.2969 143.562H63.0469V137.609H60.8281V139H55.5V137.609H53.2969V143.562ZM55.5 141.797V140.656H60.8281V141.797H55.5ZM82.1562 148.047H79.3594V144.594C80.3984 143.922 81.0234 142.922 81.0312 141.688C81.0234 139.352 78.6953 137.797 75.5781 137.797C72.4531 137.797 70.1484 139.352 70.1562 141.688C70.1484 142.945 70.7969 143.961 71.875 144.641V148.047H69.0469V149.875H82.1562V148.047ZM72.3906 141.688C72.3828 140.312 73.625 139.555 75.5781 139.562C77.5156 139.555 78.7969 140.312 78.7969 141.688C78.7969 143.047 77.5156 143.844 75.5781 143.844C73.625 143.844 72.3828 143.047 72.3906 141.688ZM74.0938 148.047V145.453C74.5625 145.531 75.0547 145.578 75.5781 145.578C76.1016 145.578 76.6094 145.531 77.0781 145.453V148.047H74.0938ZM96.0781 138.953H94.2969V137.156H92.0469V145.594H94.2969V143.906H96.0781V142.047H94.2969V140.766H96.0781V138.953ZM82.9219 141.453C82.9062 143.531 84.6406 145 86.9062 145C89.1328 145 90.8594 143.531 90.8594 141.453C90.8594 139.406 89.1328 137.922 86.9062 137.922C84.6406 137.922 82.9062 139.406 82.9219 141.453ZM84.5625 147.953H92.0469V151.5H94.2969V146.141H84.5625V147.953ZM85.125 141.453C85.1172 140.398 85.8828 139.844 86.9062 139.844C87.8906 139.844 88.6641 140.398 88.6719 141.453C88.6641 142.523 87.8906 143.094 86.9062 143.094C85.8828 143.094 85.1172 142.523 85.125 141.453ZM108.125 137.156H105.875V145.391H108.125V142.25H109.984V140.422H108.125V137.156ZM96.5781 143.984L97.4688 145.797C101.766 144.625 104.109 141.945 104.109 138.062H97.2656V139.859H101.633C101.312 141.68 99.625 143.195 96.5781 143.984ZM98.4844 148.531C98.4766 150.375 100.469 151.523 103.391 151.516C106.328 151.523 108.273 150.375 108.281 148.531C108.273 146.727 106.328 145.562 103.391 145.562C100.469 145.562 98.4766 146.727 98.4844 148.531ZM100.719 148.531C100.711 147.727 101.695 147.305 103.391 147.297C105.078 147.305 106.055 147.727 106.062 148.531C106.055 149.352 105.078 149.781 103.391 149.781C101.695 149.781 100.711 149.352 100.719 148.531ZM118.781 138.25H110.922V140.078H113.68C113.523 141.523 112.57 142.938 110.375 143.578L111.5 145.312C113.148 144.836 114.25 143.852 114.875 142.594C115.508 143.727 116.578 144.609 118.156 145.031L119.219 143.297C117.102 142.703 116.18 141.398 116.023 140.078H118.781V138.25ZM110.375 147.047L110.656 148.859C113.039 148.844 116.211 148.867 119.203 148.281L119.047 146.672C118.07 146.805 117.023 146.891 115.984 146.945V144.688H113.734V147.023C112.531 147.047 111.383 147.047 110.375 147.047ZM119.766 151.5H122.016V144.594H123.844V142.719H122.016V137.156H119.766V151.5ZM62.8281 167.062H57.3594V164.547H61.4219V157.047H59.1719V159.156H53.3125V157.047H51.0625V164.547H55.1406V167.062H49.7188V168.891H62.8281V167.062ZM53.3125 162.766V160.922H59.1719V162.766H53.3125ZM75.6875 156.156H73.4531V161.219H71.2969V163.047H73.4531V170.531H75.6875V156.156ZM64 159.125H68.3125V161.031H64.0469V167.234H65.25C67.5781 167.234 69.5547 167.164 71.6719 166.812L71.5 165C69.7344 165.297 68.1094 165.367 66.2812 165.375V162.812H70.5156V157.328H64V159.125ZM88.75 156.156H86.5V170.453H88.75V163.391H90.6719V161.547H88.75V156.156ZM77.1406 166.344L78.4062 168.062C83.2734 165.672 84.875 161.961 84.875 157.594H78V159.438H82.5859C82.1953 162.555 80.4297 164.688 77.1406 166.344ZM103.312 156.156H101.031V170.5H103.312V156.156ZM91.2031 166.328L92.375 168.109C97.5938 165.664 98.9922 162.062 99 157.641H92.0156V159.391H96.7031C96.3828 162.484 94.8516 164.609 91.2031 166.328Z" fill="#063F94"/>
</g>
<defs>
<filter id="filter0_d_1_125" x="0" y="0" width="164" height="211" filterUnits="userSpaceOnUse" color-interpolation-filters="sRGB">
<feFlood flood-opacity="0" result="BackgroundImageFix"/>
<feColorMatrix in="SourceAlpha" type="matrix" values="0 0 0 0 0 0 0 0 0 0 0 0 0 0 0 0 0 0 127 0" result="hardAlpha"/>
<feOffset dx="5" dy="5"/>
<feGaussianBlur stdDeviation="10"/>
<feComposite in2="hardAlpha" operator="out"/>
<feColorMatrix type="matrix" values="0 0 0 0 0 0 0 0 0 0 0 0 0 0 0 0 0 0 0.08 0"/>
<feBlend mode="normal" in2="BackgroundImageFix" result="effect1_dropShadow_1_125"/>
<feBlend mode="normal" in="SourceGraphic" in2="effect1_dropShadow_1_125" result="shape"/>
</filter>
</defs>
</svg>
