<svg width="48" height="48" viewBox="0 0 48 48" fill="none" xmlns="http://www.w3.org/2000/svg">
<path fill-rule="evenodd" clip-rule="evenodd" d="M22 13C17.0294 13 13 17.0294 13 22C13 26.9706 17.0294 31 22 31C26.9706 31 31 26.9706 31 22C31 17.0294 26.9706 13 22 13ZM11 22C11 15.9249 15.9249 11 22 11C28.0751 11 33 15.9249 33 22C33 24.6775 32.0434 27.1316 30.4533 29.0391L35.3738 33.9596C35.7643 34.3501 35.7643 34.9832 35.3738 35.3738C34.9832 35.7643 34.3501 35.7643 33.9596 35.3738L29.0391 30.4533C27.1316 32.0434 24.6775 33 22 33C15.9249 33 11 28.0751 11 22Z" fill="#3A2A21"/>
<rect x="0.5" y="0.5" width="47" height="47" rx="3.5" stroke="#EEEEEE"/>
</svg>
