<svg width="131" height="56" viewBox="0 0 131 56" fill="none" xmlns="http://www.w3.org/2000/svg">
<path d="M2.784 20.456C1.32 20.456 0.768 21.44 0.768 22.4C0.768 23.384 1.344 24.344 2.784 24.344H21.216C22.656 24.344 23.232 23.384 23.232 22.4C23.232 21.44 22.68 20.456 21.216 20.456H14.448V15.944H22.008V6.656C22.008 3.872 21.48 3.008 18.576 3.008H5.424C2.52 3.008 1.992 3.872 1.992 6.656V12.32C1.992 15.104 2.52 15.944 5.424 15.944H9.552V20.456H2.784ZM6.792 11.432V7.52C6.792 7.088 6.888 6.8 7.368 6.8H16.608C17.088 6.8 17.208 7.088 17.208 7.52V12.176H7.536C6.96 12.176 6.792 11.912 6.792 11.432ZM29.808 2.816C26.928 2.816 25.944 3.848 25.944 6.608V9.992C25.944 12.776 26.928 13.808 29.808 13.808H44.232C45.552 13.808 46.104 12.752 46.104 11.84C46.104 10.952 45.576 9.896 44.232 9.896H31.512C31.008 9.896 30.84 9.728 30.84 9.224V7.376C30.84 6.872 31.008 6.728 31.512 6.728H43.848C45.192 6.728 45.696 5.696 45.696 4.784C45.696 3.872 45.216 2.816 43.848 2.816H29.808ZM44.928 19.448C46.368 19.448 46.944 18.488 46.944 17.504C46.944 16.544 46.392 15.536 44.928 15.536H26.784C25.32 15.536 24.768 16.544 24.768 17.504C24.768 18.488 25.344 19.448 26.784 19.448H33.552V24.944H38.448V19.448H44.928ZM50.832 19.904C49.368 19.904 48.792 20.912 48.792 21.896C48.792 22.904 49.392 23.888 50.832 23.888H62.904C64.344 23.888 64.92 22.904 64.92 21.896C64.92 20.912 64.368 19.904 62.904 19.904H50.832ZM49.368 11.072C49.368 15.248 52.44 17.144 56.376 17.144C60.312 17.144 63.36 15.248 63.36 11.072V8.768C63.36 4.592 60.312 2.696 56.376 2.696C52.44 2.696 49.368 4.592 49.368 8.768V11.072ZM54.072 8.6C54.072 7.064 55.224 6.464 56.376 6.464C57.528 6.464 58.68 7.064 58.68 8.6V11.24C58.68 12.8 57.528 13.376 56.376 13.376C55.224 13.376 54.072 12.8 54.072 11.24V8.6ZM70.584 24.824V4.664C70.584 3.104 69.456 2.288 68.184 2.288C66.912 2.288 65.784 3.104 65.784 4.664V24.824H70.584ZM12.312 51.144H17.256V34.176C17.256 32.568 16.08 31.728 14.784 31.728C13.488 31.728 12.312 32.568 12.312 34.176V39.216H6.24V34.176C6.24 32.568 5.064 31.728 3.768 31.728C2.472 31.728 1.296 32.568 1.296 34.176V51.144H6.24V43.392H12.312V51.144ZM29.1705 51.144V36.072H32.8425C34.2345 36.072 34.7865 34.92 34.7865 33.936C34.7865 32.952 34.2585 31.872 32.8425 31.872H20.5065C19.0905 31.872 18.5625 32.952 18.5625 33.936C18.5625 34.92 19.1145 36.072 20.5065 36.072H24.1785V51.144H29.1705ZM45.5267 50.28C46.4387 50.28 47.8547 49.92 48.0947 49.104L50.5427 40.272L51.6227 51.144H56.1587L54.1427 34.176C53.9987 32.712 52.7027 31.872 51.6227 31.776C50.4707 31.68 48.8627 32.16 48.4307 33.744L45.5267 44.736L42.6227 33.744C42.1907 32.16 40.5827 31.68 39.4307 31.776C38.3507 31.872 37.0547 32.712 36.9107 34.176L34.8947 51.144H39.4307L40.5347 40.344L42.9587 49.104C43.1987 49.92 44.6147 50.28 45.5267 50.28ZM69.312 51.144C70.704 51.144 71.256 49.992 71.256 49.008C71.256 48.024 70.728 46.944 69.312 46.944H63.984C63.432 46.944 63.288 46.824 63.288 46.248V34.176C63.288 32.568 62.088 31.728 60.792 31.728C59.496 31.728 58.296 32.568 58.296 34.176V47.352C58.296 50.112 59.16 51.144 62.04 51.144H69.312ZM83.4844 33.408C84.1324 31.872 83.5084 30.984 82.2604 30.648C81.0124 30.336 79.8844 30.744 79.2124 32.304L72.2284 48.552C71.5564 50.112 72.2524 51.024 73.4764 51.36C74.7244 51.672 75.8764 51.288 76.5484 49.704L83.4844 33.408ZM90.1864 39.36C90.1864 37.104 91.7944 35.976 93.5224 35.976C94.5064 35.976 95.0584 36.072 95.6344 36.288C95.9944 36.432 96.4024 36.696 96.9544 36.792C97.7704 36.936 98.6584 36.6 99.1384 35.76C99.7144 34.752 99.2344 33.6 98.2504 32.904C97.3144 32.232 95.6584 31.728 93.5224 31.728C89.3704 31.728 85.2424 33.84 85.2424 39.144V44.136C85.2424 49.44 89.3704 51.552 93.5224 51.552C95.3704 51.552 97.4344 51.072 98.7544 49.992C99.5944 49.32 99.9784 48.24 99.3784 47.256C98.8984 46.464 98.1784 46.2 97.3144 46.344C96.8584 46.416 96.4264 46.68 96.0664 46.848C95.4184 47.136 94.6264 47.304 93.5224 47.304C91.7944 47.304 90.1864 46.176 90.1864 43.92V39.36ZM106.312 37.44C106.337 36.456 107.033 36 108.185 36C109.625 36 110.465 36.336 111.041 36.72C111.257 36.888 111.785 37.032 112.145 37.032C113.057 37.032 113.897 36.648 114.209 35.664C114.569 34.512 113.801 33.312 112.697 32.712C111.809 32.232 110.633 31.752 108.137 31.752C104.849 31.752 102.497 33.24 101.657 35.808C100.841 38.328 101.633 41.616 105.257 43.128C105.545 43.248 106.025 43.44 106.409 43.56C108.401 44.184 109.985 44.88 109.961 45.792C109.937 46.848 109.145 47.304 107.825 47.304C106.193 47.304 105.449 47.016 104.897 46.68C104.441 46.44 104.033 46.056 103.193 46.08C102.545 46.104 101.849 46.416 101.489 46.944C100.769 48.048 101.201 49.344 102.113 50.088C103.409 51.12 105.545 51.552 107.681 51.552C112.049 51.552 114.737 49.56 114.953 46.152C115.145 43.056 113.297 40.968 110.489 39.96L109.313 39.552C107.393 38.904 106.289 38.328 106.312 37.44ZM121.5 37.44C121.524 36.456 122.22 36 123.372 36C124.812 36 125.652 36.336 126.228 36.72C126.444 36.888 126.972 37.032 127.332 37.032C128.244 37.032 129.084 36.648 129.396 35.664C129.756 34.512 128.988 33.312 127.884 32.712C126.996 32.232 125.82 31.752 123.324 31.752C120.036 31.752 117.684 33.24 116.844 35.808C116.028 38.328 116.82 41.616 120.444 43.128C120.732 43.248 121.212 43.44 121.596 43.56C123.588 44.184 125.172 44.88 125.148 45.792C125.124 46.848 124.332 47.304 123.012 47.304C121.38 47.304 120.636 47.016 120.084 46.68C119.628 46.44 119.22 46.056 118.38 46.08C117.732 46.104 117.036 46.416 116.676 46.944C115.956 48.048 116.388 49.344 117.3 50.088C118.596 51.12 120.732 51.552 122.868 51.552C127.236 51.552 129.924 49.56 130.14 46.152C130.332 43.056 128.484 40.968 125.676 39.96L124.5 39.552C122.58 38.904 121.476 38.328 121.5 37.44Z" fill="#3A2A21"/>
<rect x="75" y="12" width="56" height="4" rx="2" fill="#FFCF5C"/>
</svg>
