<svg width="56" height="50" viewBox="0 0 56 50" fill="none" xmlns="http://www.w3.org/2000/svg">
<path d="M21.8454 45.752H17.4414V43.724H20.8854V42.932H14.2614V41.192H20.6334V37.916H13.2654V38.72H19.6734V40.4H13.2894V43.724H16.4454V45.752H12.0654V46.556H21.8454V45.752ZM30.5805 39.068V39.344C30.5805 40.676 30.5805 42.284 30.1485 44.48L31.1325 44.588C31.5405 42.26 31.5525 40.712 31.5525 39.344V38.276H31.0965V38.264H24.1725V39.068H30.5805ZM32.8605 45.5H23.1285V46.316H32.8605V45.5ZM42.9875 44.996V37.136H42.0035V44.996H42.9875ZM40.0235 40.52C40.0235 38.972 38.7995 37.88 37.2035 37.88C35.6075 37.88 34.4075 38.972 34.4075 40.52C34.4075 42.08 35.6075 43.184 37.2035 43.184C38.7995 43.184 40.0235 42.08 40.0235 40.52ZM35.3675 40.52C35.3675 39.476 36.1475 38.732 37.2035 38.732C38.2715 38.732 39.0635 39.476 39.0635 40.52C39.0635 41.588 38.2715 42.332 37.2035 42.332C36.1475 42.332 35.3675 41.588 35.3675 40.52ZM43.3115 46.844H37.0475V44.192H36.0635V47.648H43.3115V46.844Z" fill="#767676"/>
<path d="M38.6666 28V25.3333C38.6666 23.9188 38.1047 22.5623 37.1045 21.5621C36.1043 20.5619 34.7477 20 33.3333 20H22.6666C21.2521 20 19.8955 20.5619 18.8953 21.5621C17.8952 22.5623 17.3333 23.9188 17.3333 25.3333V28" stroke="black" stroke-width="2" stroke-linecap="round" stroke-linejoin="round"/>
<path d="M28.0001 14.6667C30.9456 14.6667 33.3334 12.2789 33.3334 9.33333C33.3334 6.38781 30.9456 4 28.0001 4C25.0546 4 22.6667 6.38781 22.6667 9.33333C22.6667 12.2789 25.0546 14.6667 28.0001 14.6667Z" stroke="black" stroke-width="2" stroke-linecap="round" stroke-linejoin="round"/>
</svg>
