<svg width="56" height="50" viewBox="0 0 56 50" fill="none" xmlns="http://www.w3.org/2000/svg">
<path d="M11.0943 42.248V41.42H9.31834V37.136H8.33434V47.888H9.31834V42.248H11.0943ZM1.47034 38.204V45.152H6.40234V38.204H1.47034ZM2.43034 44.36V38.996H5.44234V44.36H2.43034ZM20.8854 37.124H19.9014V47.912H20.8854V37.124ZM15.2094 37.952C13.6134 37.952 12.4734 39.416 12.4734 41.708C12.4734 44 13.6134 45.464 15.2094 45.464C16.8054 45.464 17.9454 44 17.9454 41.708C17.9454 39.416 16.8054 37.952 15.2094 37.952ZM15.2094 38.84C16.2534 38.84 16.9974 39.968 16.9974 41.708C16.9974 43.46 16.2534 44.588 15.2094 44.588C14.1534 44.588 13.4094 43.46 13.4094 41.708C13.4094 39.968 14.1534 38.84 15.2094 38.84ZM32.3085 37.136H31.3605V47.888H32.3085V37.136ZM29.2845 37.388V41.228H27.8205V42.092H29.2845V47.324H30.2085V37.388H29.2845ZM27.2445 44.276V39.284H28.1325V38.492H23.2125V39.284H24.1005V44.408C23.8965 44.42 23.7045 44.42 23.5245 44.42H23.0085L23.1045 45.236C24.4965 45.236 26.7645 45.2 28.4325 44.876L28.3725 44.156C28.0245 44.204 27.6285 44.24 27.2445 44.276ZM25.0005 44.384V39.284H26.3445V44.336C25.8765 44.372 25.4445 44.372 25.0005 44.384ZM42.9635 37.124H41.9795V47.912H42.9635V37.124ZM37.2875 37.952C35.6915 37.952 34.5515 39.416 34.5515 41.708C34.5515 44 35.6915 45.464 37.2875 45.464C38.8835 45.464 40.0235 44 40.0235 41.708C40.0235 39.416 38.8835 37.952 37.2875 37.952ZM37.2875 38.84C38.3315 38.84 39.0755 39.968 39.0755 41.708C39.0755 43.46 38.3315 44.588 37.2875 44.588C36.2315 44.588 35.4875 43.46 35.4875 41.708C35.4875 39.968 36.2315 38.84 37.2875 38.84ZM54.0026 37.136H53.0186V47.888H54.0026V37.136ZM49.0346 40.412V39.044H51.5666V38.228H45.5546V39.044H48.0506V40.412C48.0506 42.272 46.7426 44.288 45.1946 45.032L45.7706 45.824C46.9706 45.224 48.0626 43.832 48.5426 42.272C49.0586 43.748 50.1146 44.984 51.3626 45.56L51.9146 44.768C50.3306 44.096 49.0346 42.236 49.0346 40.412Z" fill="#767676"/>
<path d="M38.6667 28V25.3333C38.6667 23.9188 38.1048 22.5623 37.1046 21.5621C36.1044 20.5619 34.7479 20 33.3334 20H22.6667C21.2522 20 19.8957 20.5619 18.8955 21.5621C17.8953 22.5623 17.3334 23.9188 17.3334 25.3333V28" stroke="black" stroke-width="2" stroke-linecap="round" stroke-linejoin="round"/>
<path d="M28 14.6667C30.9455 14.6667 33.3333 12.2789 33.3333 9.33333C33.3333 6.38781 30.9455 4 28 4C25.0544 4 22.6666 6.38781 22.6666 9.33333C22.6666 12.2789 25.0544 14.6667 28 14.6667Z" stroke="black" stroke-width="2" stroke-linecap="round" stroke-linejoin="round"/>
</svg>
