<svg width="100" height="100" viewBox="0 0 100 100" fill="none" xmlns="http://www.w3.org/2000/svg">
<path d="M63.8834 36.1167C67.4928 36.0084 70.9181 34.4984 73.4329 31.907C75.9477 29.3156 77.3543 25.8465 77.3543 22.2354C77.3543 18.6244 75.9477 15.1553 73.4329 12.5639C70.9181 9.97248 67.4928 8.46251 63.8834 8.35419H36.1167C32.5073 8.46251 29.082 9.97248 26.5671 12.5639C24.0523 15.1553 22.6458 18.6244 22.6458 22.2354C22.6458 25.8465 24.0523 29.3156 26.5671 31.907C29.082 34.4984 32.5073 36.0084 36.1167 36.1167C32.4757 36.1798 29.0052 37.6704 26.4526 40.2676C23.9 42.8647 22.4697 46.3606 22.4697 50.0021C22.4697 53.6436 23.9 57.1395 26.4526 59.7366C29.0052 62.3338 32.4757 63.8244 36.1167 63.8875C32.4935 63.9763 29.0485 65.478 26.5174 68.0719C23.9862 70.6659 22.5693 74.1466 22.5693 77.7709C22.5693 81.3951 23.9862 84.8758 26.5174 87.4698C29.0485 90.0637 32.4935 91.5654 36.1167 91.6542C39.7988 91.652 43.3295 90.188 45.9327 87.5839C48.536 84.9799 49.9989 81.4488 50 77.7667V36.1167H63.8834Z" fill="white" fill-opacity="0.5"/>
<path d="M63.8833 63.8834C71.5509 63.8834 77.7667 57.6676 77.7667 50C77.7667 42.3325 71.5509 36.1167 63.8833 36.1167C56.2158 36.1167 50 42.3325 50 50C50 57.6676 56.2158 63.8834 63.8833 63.8834Z" fill="white" fill-opacity="0.5"/>
</svg>
