<svg width="75" height="76" viewBox="0 0 75 76" fill="none" xmlns="http://www.w3.org/2000/svg">
<g clip-path="url(#clip0_3_169)">
<path d="M6.28001 67.6438L-3.05176e-05 0.625305L75 0.759982L68.3595 67.6438L37.783 75.3747L6.28001 67.6438Z" fill="#EEECEC"/>
<path d="M37.7831 68.9023V7.00793L68.6685 7.09772L63.1609 62.4743L37.7831 68.9023Z" fill="#EEECEC"/>
<path d="M34.7527 14H26.5934V47.1399L20.2472 46.2902V41.829L12.6923 40.9793V50.9637L34.7527 55V14ZM40.8735 14H63.4615L61.9505 20.3518H49.4964V30.7752H61.9505L60.4395 51.8135L40.8735 55V48.4145L54.0934 45.228L54.8567 36.5181L40.8735 37.9415V14Z" fill="#DDD8D8"/>
</g>
<defs>
<clipPath id="clip0_3_169">
<rect width="75" height="75" fill="white" transform="translate(0 0.5)"/>
</clipPath>
</defs>
</svg>
